<svg id="Layer_1" data-name="Layer 1" xmlns="http://www.w3.org/2000/svg" width="200" height="200" viewBox="0 0 200 200"><defs><style>.cls-1{fill:#c8c7c7;}.cls-2,.cls-6{fill:none;}.cls-2{stroke:#8d8d8d;stroke-miterlimit:10;stroke-width:0.75px;}.cls-3{fill:#e9e9e9;}.cls-4{fill:#3c5ea9;}.cls-5{fill:#fff;}</style></defs><title>attack_on_titan_logo-freelogovectors.net_</title><g id="g10"><g id="g12"><path id="path14" class="cls-1" d="M36.35,18h131.9l3.35,136.09-70.76,38.1L28.4,153.28Z"/></g><g id="g16"><path id="path18" class="cls-2" d="M36.35,18h131.9l3.35,136.09-70.76,38.1L28.4,153.28Z"/></g><g id="g20"><path id="path22" class="cls-3" d="M41.8,23.48H98.74L97.91,80,39.7,79.59Z"/></g><g id="g24"><path id="path26" class="cls-2" d="M41.8,23.48H98.74L97.91,80,39.7,79.59Z"/></g><g id="g28"><path id="path30" class="cls-3" d="M105.44,23.48,162,23.06l1.68,57.36-59-.83Z"/></g><g id="g32"><path id="path34" class="cls-2" d="M105.44,23.48,162,23.06l1.68,57.36-59-.83Z"/></g><g id="g36"><path id="path38" class="cls-3" d="M165.74,152l-62,31.82V86.7l60.71.42Z"/></g><g id="g40"><path id="path42" class="cls-2" d="M165.74,152l-62,31.82V86.7l60.71.42Z"/></g><g id="g44"><path id="path46" class="cls-3" d="M97.07,183.85,36.35,152l.84-65.11,60.3-.63Z"/></g><g id="g48"><path id="path50" class="cls-2" d="M97.07,183.85,36.35,152l.84-65.11,60.3-.63Z"/></g><g id="g52"><path id="path54" class="cls-4" d="M48.08,7.78,55,11.34,73.62,30.81V44.62L51.85,22.43Z"/></g><g id="g56"><path id="path58" class="cls-2" d="M48.08,7.78,55,11.34,73.62,30.81V44.62L51.85,22.43Z"/></g><g id="g60"><path id="path62" class="cls-4" d="M77,34.16l22.82,22-8,6.7L77,47.55Z"/></g><g id="g64"><path id="path66" class="cls-2" d="M77,34.16l22.82,22-8,6.7L77,47.55Z"/></g><g id="g68"><path id="path70" class="cls-4" d="M40.75,26.2l9.84,5,16.12,14,.84,13.82-19-14.24Z"/></g><g id="g72"><path id="path74" class="cls-2" d="M40.75,26.2l9.84,5,16.12,14,.84,13.82-19-14.24Z"/></g><g id="g76"><path id="path78" class="cls-4" d="M69.43,46.93l1.26,14L83,71.42l6.28-7.12Z"/></g><g id="g80"><path id="path82" class="cls-2" d="M69.43,46.93l1.26,14L83,71.42l6.28-7.12Z"/></g><g id="g84"><path id="path86" class="cls-4" d="M37.19,47.14l8.58,1,17.17,13,2.31,13.19L44.73,59.07Z"/></g><g id="g88"><path id="path90" class="cls-2" d="M37.19,47.14l8.58,1,17.17,13,2.31,13.19L44.73,59.07Z"/></g><g id="g92"><path id="path94" class="cls-4" d="M66.71,63.68,82,74.35l-.41,11.1L68.81,77.07Z"/></g><g id="g96"><path id="path98" class="cls-2" d="M66.71,63.68,82,74.35l-.41,11.1L68.81,77.07Z"/></g><g id="g100"><path id="path102" class="cls-5" d="M85.55,73.73,104,56.56l-1.26,14.23L84.51,90.05Z"/></g><g id="g104"><path id="path106" class="cls-2" d="M85.55,73.73,104,56.56l-1.26,14.23L84.51,90.05Z"/></g><g id="g108"><path id="path110" class="cls-5" d="M107.12,53.42l20.1-19.06L126.8,49,106.49,66.4Z"/></g><g id="g112"><path id="path114" class="cls-2" d="M107.12,53.42l20.1-19.06L126.8,49,106.49,66.4Z"/></g><g id="g116"><path id="path118" class="cls-5" d="M129.94,30.6v14L148.78,28.5l6.91-19.26-9.63,4.82Z"/></g><g id="g120"><path id="path122" class="cls-2" d="M129.94,30.6v14L148.78,28.5l6.91-19.26-9.63,4.82Z"/></g><g id="g124"><path id="path126" class="cls-5" d="M84.09,94.45l.21,12.35,20.93-20.51,1.26-14Z"/></g><g id="g128"><path id="path130" class="cls-2" d="M84.09,94.45l.21,12.35,20.93-20.51,1.26-14Z"/></g><g id="g132"><path id="path134" class="cls-5" d="M110.05,69.12l-1.67,12.56,23.44-19.47,1.47-14Z"/></g><g id="g136"><path id="path138" class="cls-2" d="M110.05,69.12l-1.67,12.56,23.44-19.47,1.47-14Z"/></g><g id="g140"><path id="path142" class="cls-5" d="M136.22,45.25l-1.68,14.66,20.31-13.82,9.42-19.89-11.51,6.28Z"/></g><g id="g144"><path id="path146" class="cls-2" d="M136.22,45.25l-1.68,14.66,20.31-13.82,9.42-19.89-11.51,6.28Z"/></g><g id="g148"><path id="path150" class="cls-5" d="M139.78,61.16,154.23,50.9l12.56-3.14L154,64.72,137.89,75Z"/></g><g id="g152"><path id="path154" class="cls-2" d="M139.78,61.16,154.23,50.9l12.56-3.14L154,64.72,137.89,75Z"/></g><g id="g156"><path id="path158" class="cls-5" d="M111.1,84.82l24.49-20.73-1.46,12.57L109,97Z"/></g><g id="g160"><path id="path162" class="cls-2" d="M111.1,84.82l24.49-20.73-1.46,12.57L109,97Z"/></g><g id="g164"><path id="path166" class="cls-4" d="M38.66,63.68,47.87,67,61.69,79.38,65,93.2,46.61,78.54Z"/></g><g id="g168"><path id="path170" class="cls-2" d="M38.66,63.68,47.87,67,61.69,79.38,65,93.2,46.61,78.54Z"/></g><g id="g172"><path id="path174" class="cls-4" d="M64.62,79.8,68,93l12.35,8.16V89.43Z"/></g><g id="g176"><path id="path178" class="cls-2" d="M64.62,79.8,68,93l12.35,8.16V89.43Z"/></g><g id="g180"><path id="path182" class="cls-5" d="M83.46,111.2l23-21.77-1.88,11.09L82,123.55Z"/></g><g id="g184"><path id="path186" class="cls-2" d="M83.46,111.2l23-21.77-1.88,11.09L82,123.55Z"/></g><g id="g188"><path id="path190" class="cls-4" d="M66.71,100.1l13,5.66-.21,11.72-9.63-4.4Z"/></g><g id="g192"><path id="path194" class="cls-2" d="M66.71,100.1l13,5.66-.21,11.72-9.63-4.4Z"/></g><g id="g196"><path id="path198" class="cls-4" d="M61.9,97.38l4,14-20.51-11.1L37.19,86.92H47Z"/></g><g id="g200"><path id="path202" class="cls-2" d="M61.9,97.38l4,14-20.51-11.1L37.19,86.92H47Z"/></g><g id="g204"><path id="path206" class="cls-4" d="M66.92,117.69l12.35,5.65-.42,9.84-7.32-3.35Z"/></g><g id="g208"><path id="path210" class="cls-2" d="M66.92,117.69l12.35,5.65-.42,9.84-7.32-3.35Z"/></g><g id="g212"><path id="path214" class="cls-4" d="M41,106.8l4.19-.2L62.31,115l5,13.4L48.5,118.32Z"/></g><g id="g216"><path id="path218" class="cls-2" d="M41,106.8l4.19-.2L62.31,115l5,13.4L48.5,118.32Z"/></g><g id="g220"><path id="path222" class="cls-5" d="M81.58,128.79l27.84-27.43-2.72,11.52-26,23.65Z"/></g><g id="g224"><path id="path226" class="cls-2" d="M81.58,128.79l27.84-27.43-2.72,11.52-26,23.65Z"/></g><g id="g228"><path id="path230" class="cls-5" d="M115.7,95.71,111.1,110l21.77-13.61L138.1,79.8Z"/></g><g id="g232"><path id="path234" class="cls-2" d="M115.7,95.71,111.1,110l21.77-13.61L138.1,79.8Z"/></g><g id="g236"><path id="path238" class="cls-5" d="M141.87,77.7l11.73-8.58,13.19-4.19L156.53,81.68,139.15,92.36Z"/></g><g id="g240"><path id="path242" class="cls-2" d="M141.87,77.7l11.73-8.58,13.19-4.19L156.53,81.68,139.15,92.36Z"/></g><g id="g244"><path id="path246" class="cls-5" d="M141.24,97.59,160.3,88l7.74-.21-13.4,16.33-18,7.54Z"/></g><g id="g248"><path id="path250" class="cls-2" d="M141.24,97.59,160.3,88l7.74-.21-13.4,16.33-18,7.54Z"/></g><g id="g252"><path id="path254" class="cls-5" d="M136.85,99.06l-4.19,14.65-22,12.56,3.76-12.77Z"/></g><g id="g256"><path id="path258" class="cls-2" d="M136.85,99.06l-4.19,14.65-22,12.56,3.76-12.77Z"/></g><g id="g260"><path id="path262" class="cls-5" d="M80.74,139.46l28.89-22.61-4.19,12.77L79.9,145.75Z"/></g><g id="g264"><path id="path266" class="cls-2" d="M80.74,139.46l28.89-22.61-4.19,12.77L79.9,145.75Z"/></g><g id="g268"><path id="path270" class="cls-5" d="M78.64,151.4,108,131.93l-5.45,11.93-25.12,13Z"/></g><g id="g272"><path id="path274" class="cls-2" d="M78.64,151.4,108,131.93l-5.45,11.93-25.12,13Z"/></g><g id="g276"><path id="path278" class="cls-5" d="M114,128.3l22.33-10.19-7.54,14.38L108,140.58Z"/></g><g id="g280"><path id="path282" class="cls-2" d="M114,128.3l22.33-10.19-7.54,14.38L108,140.58Z"/></g><g id="g284"><path id="path286" class="cls-5" d="M140.48,116l-5.87,13.12,14.52-5.45,13.54-15.91-7.82,1Z"/></g><g id="g288"><path id="path290" class="cls-2" d="M140.48,116l-5.87,13.12,14.52-5.45,13.54-15.91-7.82,1Z"/></g><g id="g292"><path id="path294" class="cls-5" d="M137,132.21l-5.31,12.28,12.85-5,15.91-13.54-9.91.83Z"/></g><g id="g296"><path id="path298" class="cls-2" d="M137,132.21l-5.31,12.28,12.85-5,15.91-13.54-9.91.83Z"/></g><g id="g300"><path id="path302" class="cls-5" d="M132,134.3l-7.25,13-22.34,9.21,6.7-12.42Z"/></g><g id="g304"><path id="path306" class="cls-2" d="M132,134.3l-7.25,13-22.34,9.21,6.7-12.42Z"/></g><g id="g308"><path id="path310" class="cls-5" d="M104.05,147.14l-7,10.61L72.22,169.33l3.21-8Z"/></g><g id="g312"><path id="path314" class="cls-2" d="M104.05,147.14l-7,10.61L72.22,169.33l3.21-8Z"/></g><g id="g316"><path id="path318" class="cls-4" d="M44,124.53l9.91,1L65.11,131l4.32,12.42-16.33-7Z"/></g><g id="g320"><path id="path322" class="cls-2" d="M44,124.53l9.91,1L65.11,131l4.32,12.42-16.33-7Z"/></g><g id="g324"><path id="path326" class="cls-4" d="M71.81,135l5.58,2.37v8.52l-2.65-1.26Z"/></g><g id="g328"><path id="path330" class="cls-2" d="M71.81,135l5.58,2.37v8.52l-2.65-1.26Z"/></g><g id="g332"><path id="path334" class="cls-4" d="M76.69,149.93l-3.35,8.24L61.48,154,53.8,143.65l7.54-.56Z"/></g><g id="g336"><path id="path338" class="cls-2" d="M76.69,149.93l-3.35,8.24L61.48,154,53.8,143.65l7.54-.56Z"/></g><g id="g340"><path id="path342" class="cls-4" d="M60.36,160.4l6.28-.14,5.72,1.82-2.23,6.56L63.29,165Z"/></g><g id="g344"><path id="path346" class="cls-2" d="M60.36,160.4l6.28-.14,5.72,1.82-2.23,6.56L63.29,165Z"/></g><g id="g348"><path id="path350" class="cls-5" d="M49.89,190.84l23.45-19.26L99.72,159.3l-9.21,12.84Z"/></g><g id="g352"><path id="path354" class="cls-2" d="M49.89,190.84l23.45-19.26L99.72,159.3l-9.21,12.84Z"/></g><g id="g356"><path id="path358" class="cls-5" d="M105.44,157.06,97.91,167l23.58-7.4,6.29-11.16Z"/></g><g id="g360"><path id="path362" class="cls-2" d="M105.44,157.06,97.91,167l23.58-7.4,6.29-11.16Z"/></g><g id="g364"><path id="path366" class="cls-5" d="M132.52,147.71l-5.86,10.47,14.79-3.77,8.38-10.33-8-.14Z"/></g><g id="g368"><path id="path370" class="cls-2" d="M132.52,147.71l-5.86,10.47,14.79-3.77,8.38-10.33-8-.14Z"/></g><g id="g372"><path id="path374" class="cls-4" d="M122.47,164.6l9.21-2.79,9.91-.28L132,171.3l-17.16,2.79Z"/></g><g id="g376"><path id="path378" class="cls-2" d="M122.47,164.6l9.21-2.79,9.91-.28L132,171.3l-17.16,2.79Z"/></g><g id="g380"><path id="path382" class="cls-4" d="M118.84,164.18l-7,9.21-14.93-1.25,11.72-6.84Z"/></g><g id="g384"><path id="path386" class="cls-2" d="M118.84,164.18l-7,9.21-14.93-1.25,11.72-6.84Z"/></g><g id="g388"><path id="path390" class="cls-4" d="M118.56,175.77l14.94-1.26,13.12,11.58-18.29-3.9Z"/></g><g id="g392"><path id="path394" class="cls-2" d="M118.56,175.77l14.94-1.26,13.12,11.58-18.29-3.9Z"/></g></g><rect class="cls-6" width="200" height="200"/></svg>